<svg xmlns="http://www.w3.org/2000/svg" viewBox="0 0 32 32" width="32" height="32" role="img" aria-label="phenoData">
  <defs>
    <linearGradient id="f-bg" x1="0" y1="0" x2="1" y2="1">
      <stop offset="0" stop-color="#0e1116"/>
      <stop offset="1" stop-color="#090a0c"/>
    </linearGradient>
  </defs>
  <rect width="32" height="32" rx="6" fill="url(#f-bg)"/>
  <polygon points="16,3 26,7 26,25 16,29 6,25 6,7" fill="#0a0d11" stroke="#7ebab5" stroke-opacity="0.5" stroke-width="0.6"/>
  <path d="M 10 6 C 12 9, 12 11, 10 14 C 8 17, 8 19, 10 22 C 12 25, 12 26, 10 26" fill="none" stroke="#7ebab5" stroke-width="1.2" stroke-linecap="round"/>
  <path d="M 22 6 C 20 9, 20 11, 22 14 C 24 17, 24 19, 22 22 C 20 25, 20 26, 22 26" fill="none" stroke="#7ebab5" stroke-width="1.2" stroke-linecap="round"/>
  <path d="M 22 6 C 20 9, 20 11, 22 14 C 24 17, 24 19, 22 22 C 20 25, 20 26, 22 26" fill="none" stroke="#3a8d87" stroke-width="1.2" stroke-linecap="round" transform="scale(-1 1) translate(-44 0)"/>
  <g fill="#7ebab5">
    <circle cx="11" cy="10" r="0.8"/>
    <circle cx="11" cy="14" r="0.8"/>
    <circle cx="11" cy="18" r="0.8"/>
    <circle cx="11" cy="22" r="0.8"/>
    <circle cx="21" cy="10" r="0.8"/>
    <circle cx="21" cy="14" r="0.8"/>
    <circle cx="21" cy="18" r="0.8"/>
    <circle cx="21" cy="22" r="0.8"/>
  </g>
</svg>